HIERARCHY
ROOT Hips
{
	OFFSET 0.000000 0.000000 0.000000
	CHANNELS 6 Xposition Yposition Zposition Zrotation Yrotation Xrotation 
	JOINT LHipJoint
	{
		OFFSET 0.000000 0.000000 0.000000
		CHANNELS 3 Zrotation Yrotation Xrotation
		JOINT LeftUpLeg
		{
			OFFSET 1.363060 -1.794630 0.839290
			CHANNELS 3 Zrotation Yrotation Xrotation
			JOINT LeftLeg
			{
				OFFSET 2.448110 -6.726130 0.000000
				CHANNELS 3 Zrotation Yrotation Xrotation
				JOINT LeftFoot
				{
					OFFSET 2.562200 -7.039590 0.000000
					CHANNELS 3 Zrotation Yrotation Xrotation
					JOINT LeftToeBase
					{
						OFFSET 0.157640 -0.433110 2.322550
						CHANNELS 3 Zrotation Yrotation Xrotation
						End Site
						{
							OFFSET 0.000000 0.000000 0.000000
						}
					}
				}
			}
		}
	}
	JOINT RHipJoint
	{
		OFFSET 0.000000 0.000000 0.000000
		CHANNELS 3 Zrotation Yrotation Xrotation
		JOINT RightUpLeg
		{
			OFFSET -1.305520 -1.794630 0.839290
			CHANNELS 3 Zrotation Yrotation Xrotation
			JOINT RightLeg
			{
				OFFSET -2.542530 -6.985550 0.000000
				CHANNELS 3 Zrotation Yrotation Xrotation
				JOINT RightFoot
				{
					OFFSET -2.568260 -7.056230 0.000000
					CHANNELS 3 Zrotation Yrotation Xrotation
					JOINT RightToeBase
					{
						OFFSET -0.164730 -0.452590 2.363150
						CHANNELS 3 Zrotation Yrotation Xrotation
						End Site
						{
							OFFSET 0.000000 0.000000 0.000000
						}
					}
				}
			}
		}
	}
}
MOTION
Frames: 19
Frame Time: 0.008333
4.593148 16.782526 -7.478968 -173.154523 37.441197 -167.064820 -12.973078 5.212534 -0.320272 -11.077311 13.259465 -4.854233 -0.507763 2.832292 40.070730 0.505888 -11.703302 22.112301 -5.738800 -0.000000 -34.661400 7.128215 -0.933869 5.100780 10.978200 13.045515 -31.859748 3.490512 -0.546543 15.957718 1.212645 6.895736 4.378726 0.921600 -0.000000 -48.446400
4.684224 16.780655 -7.630451 -172.642683 36.875584 -167.030750 -13.195622 5.151923 -0.593414 -9.914500 15.015681 -6.546947 -0.301038 2.945319 43.273637 0.753710 -9.663166 23.476400 -5.140800 -0.000000 -34.687900 7.110368 -1.071883 4.943380 11.870182 12.194680 -31.582353 3.495670 -0.683415 17.179342 1.206069 6.940168 4.174843 0.915900 -0.000000 -45.573400
4.772530 16.779433 -7.777636 -172.164285 36.286135 -166.989844 -13.376586 5.046403 -0.846203 -8.886930 16.493770 -8.307567 -0.111487 3.067437 46.504018 1.001477 -6.913140 24.172414 -4.022300 0.000000 -34.435700 7.083923 -1.199837 4.773430 12.749386 11.297829 -31.321774 3.512347 -0.802471 18.362709 1.201725 7.038913 3.742195 0.900900 0.000000 -42.649400
4.858377 16.779264 -7.920605 -171.724604 35.666363 -166.929549 -13.519275 4.900910 -1.071167 -8.008433 17.664019 -10.153514 0.065760 3.204833 49.738062 1.245298 -3.639275 24.103964 -2.518500 0.000000 -33.803600 7.045506 -1.317991 4.608401 13.583025 10.433022 -31.067162 3.537425 -0.900303 19.458458 1.192863 7.134669 3.123912 0.867201 -0.000000 -39.824900
4.942382 16.780549 -8.059237 -171.346143 35.005490 -166.853572 -13.622082 4.723852 -1.258336 -7.309468 18.494469 -12.089404 0.236328 3.359252 52.933852 1.481605 -0.089979 23.251499 -0.844200 -0.000000 -32.760400 7.001854 -1.424661 4.457049 14.331302 9.636722 -30.817936 3.565078 -0.976855 20.446535 1.175071 7.194663 2.360594 0.812600 -0.000000 -37.263300
5.024911 16.783689 -8.193929 -171.035855 34.292011 -166.755040 -13.689272 4.522537 -1.399513 -6.795320 18.972068 -14.124116 0.405171 3.527819 56.048941 1.706745 3.466533 21.660041 0.762400 0.000001 -31.256000 6.954817 -1.519745 4.330448 14.971942 8.952504 -30.570070 3.591583 -1.030951 21.296130 1.142456 7.169446 1.502614 0.735100 0.000000 -35.085400
5.106210 16.788940 -8.325088 -170.799727 33.514557 -166.632243 -13.725069 4.303625 -1.487262 -6.463155 19.092212 -16.255025 0.574833 3.703357 59.034137 1.916851 6.794341 19.436401 2.098900 0.000000 -29.292700 6.907903 -1.603069 4.233731 15.491045 8.399300 -30.322016 3.613374 -1.062822 21.991463 1.090362 7.021828 0.593671 0.637000 0.000000 -33.371800
5.186393 16.796485 -8.453315 -170.637249 32.664781 -166.483563 -13.734963 4.071632 -1.516807 -6.292508 18.863230 -18.469573 0.744511 3.876396 61.840270 2.107342 9.716296 16.723455 3.035200 -0.000000 -26.903500 6.862714 -1.675119 4.168731 15.888142 7.985216 -30.069056 3.627989 -1.072828 22.519377 1.014444 6.718329 -0.326049 0.522900 -0.000000 -32.152200
5.265437 16.806410 -8.579069 -170.549413 31.738139 -166.318583 -13.722303 3.830400 -1.486808 -6.257079 18.304625 -20.735271 0.910109 4.036846 64.415824 2.272864 12.124619 13.678647 3.524100 -0.000000 -24.155999 6.823559 -1.735864 4.128885 16.165819 7.689376 -29.802445 3.632735 -1.062793 22.883271 0.912450 6.248100 -1.228650 0.400101 0.000000 -31.406800
5.342966 16.818679 -8.703238 -170.518058 30.734853 -166.133835 -13.695190 3.580229 -1.398497 -6.304772 17.451712 -23.025215 1.065189 4.176935 66.720923 2.406499 13.960816 10.446186 3.585600 0.000000 -21.083000 6.785822 -1.787668 4.111127 16.348502 7.504819 -29.508369 3.628276 -1.032920 23.072863 0.781385 5.592831 -2.085148 0.273800 -0.000000 -31.071700
5.418763 16.833222 -8.825822 -170.548214 29.661306 -165.961612 -13.652570 3.324749 -1.259515 -6.404191 16.348287 -25.273283 1.201715 4.290261 68.707729 2.502336 15.222557 7.167009 3.297600 0.000000 -17.798900 6.758099 -1.829709 4.094619 16.442609 7.366615 -29.162263 3.612526 -0.987198 23.113796 0.624089 4.788247 -2.890815 0.152700 -0.000000 -31.045800
5.492392 16.849896 -8.947525 -170.617286 28.527655 -165.803841 -13.601381 3.063158 -1.077323 -6.499283 15.050928 -27.446481 1.312079 4.374564 70.349088 2.555042 15.930747 3.957077 2.763800 0.000000 -14.407400 6.733933 -1.865041 4.072172 16.482683 7.255853 -28.740709 3.588718 -0.926115 22.998738 0.441628 3.844441 -3.628225 0.039800 0.000000 -31.224300
5.563498 16.868552 -9.068582 -170.714021 27.347831 -165.677439 -13.543839 2.796383 -0.862352 -6.553661 13.619861 -29.503087 1.390135 4.429252 71.619997 2.563031 16.141432 0.923950 2.101600 -0.000000 -11.093700 6.712672 -1.895317 4.030205 16.493150 7.131480 -28.216803 3.559564 -0.851753 22.735242 0.239247 2.800642 -4.292932 -0.061500 0.000000 -31.498400
5.632060 16.889058 -9.188911 -170.836597 26.137622 -165.604615 -13.478571 2.527137 -0.625705 -6.552353 12.113627 -31.405392 1.431993 4.454714 72.503866 2.529447 15.939520 -1.849053 1.417700 -0.000000 -8.001700 6.697703 -1.921468 3.953929 16.489122 6.941729 -27.569350 3.527967 -0.767192 22.340294 0.026347 1.717572 -4.890124 -0.147600 0.000000 -31.754100
5.697839 16.911181 -9.308885 -170.970073 24.912566 -165.586404 -13.407262 2.255801 -0.375965 -6.483132 10.587190 -33.145551 1.437416 4.452489 72.998881 2.462336 15.427742 -4.295448 0.794000 -0.000000 -5.314600 6.685629 -1.946006 3.839506 16.491668 6.667139 -26.788105 3.498957 -0.673591 21.814711 -0.188288 0.639759 -5.416630 -0.218000 0.000000 -31.928600
5.761112 16.934683 -9.428589 -171.112963 23.688286 -165.626292 -13.328367 1.984072 -0.120230 -6.353413 9.085193 -34.722620 1.408828 4.423698 73.110171 2.374296 14.725655 -6.377917 0.278600 -0.000000 -3.151300 6.676755 -1.970532 3.685020 16.509203 6.286841 -25.874274 3.476316 -0.572602 21.166527 -0.394095 -0.380866 -5.874478 -0.272300 -0.000000 -31.982100
5.822135 16.959261 -9.548226 -171.264121 22.478000 -165.721161 -13.239521 1.713955 0.136881 -6.183019 7.640386 -36.145314 1.350656 4.368949 72.848751 2.280643 13.956777 -8.090661 -0.114800 -0.000000 -1.551300 6.672394 -1.996357 3.492568 16.540646 5.787455 -24.840744 3.462991 -0.465876 20.407534 -0.580641 -1.296091 -6.267026 -0.310501 -0.000000 -31.903000
5.881314 16.984558 -9.668054 -171.423897 21.294898 -165.861453 -13.138620 1.446945 0.392063 -5.991970 6.276715 -37.429990 1.267872 4.289114 72.229977 2.196510 13.232056 -9.461353 -0.398600 -0.000000 -0.441900 6.672643 -2.024495 3.269316 16.582334 5.174073 -23.706984 3.460800 -0.354207 19.545053 -0.740272 -2.074717 -6.594555 -0.334401 0.000000 -31.713200
5.939116 17.010188 -9.788384 -171.595452 20.148355 -166.035407 -13.022903 1.185308 0.644642 -5.806053 5.005338 -38.592955 1.165194 4.184344 71.268048 2.135321 12.642600 -10.539145 179.401100 -0.000000 -0.308400 6.679405 -2.055421 3.024171 16.621473 4.455034 -22.500240 3.469692 -0.238672 18.593016 -0.867383 -2.694372 -6.859027 -0.346000 0.000000 -31.445900
